<?xml version="1.0" standalone="no"?>
<!DOCTYPE svg PUBLIC "-//W3C//DTD SVG 20010904//EN"
 "http://www.w3.org/TR/2001/REC-SVG-20010904/DTD/svg10.dtd">
<svg version="1.0" xmlns="http://www.w3.org/2000/svg"
 width="500.000000pt" height="500.000000pt" viewBox="0 0 500.000000 500.000000"
 preserveAspectRatio="xMidYMid meet">
<metadata>
Created by potrace 1.14, written by Peter Selinger 2001-2017
</metadata>
<g transform="translate(0.000000,500.000000) scale(0.100000,-0.100000)"
fill="#000000" stroke="none">
<path d="M1287 3338 c-14 -9 -14 -8 86 -156 42 -61 76 -102 90 -106 12 -3 178
-6 368 -6 377 0 393 -2 437 -56 34 -44 26 -99 -23 -152 l-25 -27 -293 -5 -292
-5 3 -25 c2 -14 12 -37 23 -52 10 -15 19 -32 19 -37 0 -6 6 -14 13 -18 7 -4
19 -22 25 -38 7 -17 23 -43 35 -58 l22 -28 250 0 c138 0 257 -3 266 -7 9 -4
31 -20 50 -36 31 -27 34 -34 34 -85 0 -44 -5 -61 -22 -78 -47 -47 -51 -48
-384 -51 l-316 -3 -11 -25 c-7 -13 -16 -24 -22 -24 -5 0 -10 -5 -10 -11 0 -6
-29 -48 -64 -94 -35 -45 -61 -87 -57 -93 7 -11 327 -14 1401 -13 l545 1 15 25
c8 13 56 87 105 165 125 196 124 194 131 208 11 22 -5 26 -27 6 -12 -10 -23
-18 -25 -16 -2 1 -62 -26 -132 -61 l-127 -63 -236 1 c-129 1 -241 5 -248 9
-17 11 11 51 164 236 30 36 91 112 136 170 46 58 85 107 89 110 4 3 42 50 85
105 42 55 95 120 116 145 71 82 173 214 175 227 1 7 -3 14 -9 14 -7 1 -269 2
-583 3 -433 1 -571 -1 -567 -10 2 -7 23 -24 46 -39 45 -29 108 -102 150 -176
l26 -45 185 2 c103 1 189 -2 191 -6 3 -5 -12 -28 -32 -52 -21 -25 -58 -71 -83
-103 -56 -72 -154 -192 -184 -225 -12 -14 -40 -50 -63 -80 -22 -30 -47 -61
-56 -69 -15 -11 -18 -10 -27 15 -25 64 -57 120 -88 151 -40 40 -42 57 -17 109
16 32 20 59 19 149 0 97 -3 115 -24 155 -24 44 -106 133 -145 157 -50 31 -131
64 -169 69 -63 8 -926 10 -939 2z"/>
<path d="M1430 1944 c0 -4 8 -13 17 -20 15 -11 18 -31 18 -149 1 -122 -1 -139
-17 -149 -35 -22 -17 -28 71 -24 111 4 131 18 131 88 0 36 -5 52 -23 68 -13
12 -28 22 -34 22 -6 0 2 13 18 29 36 37 39 82 6 115 -20 20 -34 23 -105 25
-45 1 -82 -1 -82 -5z m135 -38 c24 -36 9 -100 -25 -108 -12 -2 -15 10 -16 57
-1 33 0 63 3 68 8 13 22 7 38 -17z m15 -162 c15 -40 12 -80 -9 -105 -29 -36
-46 -12 -48 66 -1 63 -1 65 23 65 17 0 27 -8 34 -26z"/>
<path d="M2658 1901 l-3 -44 -96 2 -96 2 -1 -35 c-1 -19 3 -38 8 -41 6 -3 10
1 10 9 0 16 26 46 40 46 4 0 7 -48 7 -106 0 -79 -3 -107 -13 -111 -31 -12 -11
-23 41 -23 52 0 73 14 41 26 -10 4 -13 30 -13 110 0 57 4 104 8 104 14 0 39
-31 39 -47 0 -9 3 -13 8 -9 4 4 7 20 7 34 0 15 5 26 11 25 6 -1 18 16 28 38
10 21 20 39 24 40 4 1 23 2 44 3 l36 2 -23 -50 c-12 -28 -46 -99 -74 -158 -28
-58 -51 -109 -51 -113 0 -3 48 -4 108 -3 l107 3 2 60 3 60 -21 -45 c-24 -54
-32 -59 -86 -58 -36 0 -41 3 -34 17 16 29 103 215 122 258 10 23 14 45 9 48
-5 3 -49 4 -99 3 l-90 -3 -3 -44z"/>
<path d="M1919 1855 c-79 -43 -77 -210 3 -254 34 -19 73 -7 101 31 27 36 14
49 -14 15 -49 -63 -90 -13 -86 103 3 56 7 76 21 86 25 18 42 8 65 -39 l20 -42
2 35 c1 19 0 42 -1 50 -2 12 1 12 17 -2 16 -15 19 -31 18 -113 -1 -82 -4 -97
-21 -110 -17 -13 -13 -14 45 -15 61 0 63 1 48 18 -11 12 -17 36 -17 63 0 44 0
45 35 45 35 0 35 -1 35 -45 0 -27 -6 -51 -16 -63 -16 -17 -13 -18 80 -17 87 0
120 10 82 25 -8 3 -11 15 -8 30 3 19 11 24 33 24 37 0 60 -37 35 -55 -27 -20
-19 -25 39 -25 59 0 63 3 40 26 -8 9 -18 27 -21 42 -26 110 -53 187 -68 190
-9 2 -18 -2 -20 -10 -2 -7 -12 -38 -21 -68 -10 -30 -18 -59 -20 -65 -17 -76
-28 -95 -56 -95 -22 0 -21 -8 -23 109 -1 65 2 98 11 107 21 21 16 24 -36 24
-50 0 -74 -13 -46 -24 10 -3 15 -19 15 -46 0 -39 -1 -40 -35 -40 -34 0 -35 1
-35 40 0 27 5 43 15 46 33 13 0 25 -63 24 -37 -1 -80 1 -97 4 -18 4 -40 0 -56
-9z m471 -145 c0 -10 -40 -7 -41 3 0 4 3 22 6 39 l7 31 14 -32 c8 -19 14 -37
14 -41z"/>
<path d="M2935 1858 c-34 -20 -54 -51 -61 -95 -9 -63 3 -108 38 -144 27 -27
37 -30 70 -26 20 3 44 11 51 19 55 55 58 176 4 226 -28 27 -75 36 -102 20z
m80 -114 c4 -103 -19 -150 -60 -120 -33 24 -32 177 2 211 15 15 18 15 36 -3
14 -15 20 -36 22 -88z"/>
<path d="M1737 1853 c-2 -5 -17 -53 -32 -108 -16 -55 -37 -110 -48 -122 l-20
-23 41 0 c42 0 56 13 26 24 -11 4 -13 13 -8 28 9 29 20 36 49 31 27 -6 41 -51
19 -60 -31 -12 -11 -23 41 -23 52 0 72 11 41 23 -7 3 -16 19 -19 37 -17 81
-59 200 -72 200 -8 0 -16 -3 -18 -7z m10 -96 c9 -41 7 -50 -13 -53 -21 -3 -21
-1 -12 37 10 38 19 43 25 16z"/>
<path d="M3080 1850 c0 -5 7 -13 16 -18 25 -14 28 -178 3 -203 -21 -21 -15
-29 26 -29 42 0 47 8 24 31 -15 15 -19 32 -18 84 1 36 3 65 5 65 2 0 27 -40
56 -90 74 -128 82 -123 79 53 0 32 4 67 9 78 12 21 49 26 51 7 7 -94 3 -193
-8 -204 -7 -7 -13 -15 -13 -18 0 -3 38 -6 85 -6 l85 0 0 48 -1 47 -17 -35
c-13 -26 -24 -35 -42 -35 -22 0 -25 5 -28 44 -4 54 12 75 29 38 16 -35 25 -27
23 20 -4 67 -5 70 -16 46 -19 -39 -38 -28 -38 21 0 37 3 43 21 42 11 0 29 -12
39 -26 l20 -25 0 37 0 38 -125 -1 c-69 0 -125 -3 -125 -6 0 -3 7 -11 16 -17
16 -12 30 -131 14 -121 -4 3 -27 36 -50 75 -41 67 -44 70 -81 70 -22 0 -39 -4
-39 -10z"/>
<path d="M2574 1475 c-57 -37 -73 -55 -50 -55 9 0 16 3 16 8 0 4 20 18 45 31
25 13 45 30 45 37 0 17 4 19 -56 -21z"/>
<path d="M2645 1452 c-5 -20 -8 -48 -9 -61 -1 -14 -8 -25 -17 -26 -10 -2 -26
-12 -38 -24 -12 -12 -25 -21 -31 -21 -14 0 -26 31 -24 63 0 15 -3 27 -7 27 -5
0 -9 -10 -10 -22 -1 -13 -2 -38 -3 -56 -2 -36 22 -66 45 -57 8 3 22 19 31 35
10 17 22 29 29 28 20 -5 48 46 52 95 5 58 -8 71 -18 19z"/>
<path d="M3042 1459 c-18 -16 -32 -35 -30 -41 4 -11 78 50 78 64 0 15 -15 8
-48 -23z"/>
<path d="M1816 1463 c-9 -22 13 -34 35 -20 13 8 15 15 7 24 -15 18 -35 16 -42
-4z"/>
<path d="M1842 1395 c-11 -14 -27 -25 -37 -25 -9 0 -23 -7 -31 -15 -21 -20
-35 -19 -41 5 -6 23 -23 17 -23 -9 0 -10 -8 -25 -17 -34 -17 -15 -22 -17 -41
-17 -5 0 -8 -15 -7 -33 3 -43 -20 -99 -46 -116 -65 -40 -103 -15 -94 63 l5 51
-15 -34 c-32 -71 -14 -130 43 -144 28 -7 84 39 100 80 22 61 25 69 27 86 2 23
35 48 57 43 9 -2 25 7 35 20 10 13 26 24 37 24 15 0 16 -3 6 -15 -8 -10 -9
-15 -1 -15 6 0 17 12 25 28 8 15 23 36 35 46 12 11 21 23 21 28 0 16 -19 8
-38 -17z"/>
<path d="M3206 1384 c-30 -28 -37 -41 -32 -60 4 -14 2 -24 -4 -24 -5 0 -10 -7
-10 -16 0 -20 91 59 108 94 16 30 11 28 -39 -18 -55 -50 -65 -43 -14 10 49 50
42 62 -9 14z"/>
<path d="M3035 1390 c-4 -6 -2 -17 5 -25 13 -16 23 -78 11 -71 -4 3 -8 0 -9
-7 0 -7 -3 -23 -6 -36 -3 -13 -3 -21 0 -18 3 3 14 -3 25 -14 10 -10 23 -19 28
-19 15 0 -1 51 -20 63 -12 7 -15 15 -8 23 13 16 17 75 7 97 -10 19 -24 22 -33
7z"/>
<path d="M2042 1337 c-15 -17 -11 -179 4 -194 19 -20 31 -16 56 17 26 36 35
38 40 8 3 -20 4 -19 18 8 8 16 28 41 44 56 17 15 27 31 23 35 -4 3 -23 -8 -41
-26 -19 -18 -39 -30 -44 -27 -6 3 -23 -5 -38 -19 -25 -23 -28 -24 -39 -8 -8
11 -12 45 -11 90 1 40 1 73 0 73 -1 0 -6 -6 -12 -13z"/>
<path d="M3128 1324 c-8 -50 -1 -164 12 -179 13 -15 67 -17 76 -3 3 4 17 8 32
8 24 1 79 30 56 30 -10 0 17 20 28 20 14 0 0 -34 -21 -51 -25 -20 -33 -49 -21
-70 7 -11 12 -11 21 -2 9 9 9 16 -1 28 -11 13 -9 20 12 43 14 15 30 36 36 48
6 11 27 32 46 45 42 28 45 42 12 57 -25 11 -34 3 -42 -36 -6 -33 -15 -44 -30
-38 -10 4 -26 -5 -45 -25 -20 -21 -34 -29 -47 -25 -11 4 -24 0 -32 -9 -18 -21
-33 -19 -25 4 5 17 2 20 -21 18 -15 -1 -29 3 -31 9 -5 16 28 27 41 14 15 -15
26 -12 26 9 0 17 -26 47 -39 45 -3 -1 -14 4 -23 9 -12 8 -14 16 -7 29 6 11 6
25 1 34 -7 13 -10 11 -14 -12z"/>
<path d="M1979 1292 c-1 -9 -1 -36 0 -59 0 -30 -5 -49 -22 -68 -26 -30 -75
-42 -99 -23 -18 13 -32 88 -17 88 4 0 7 9 6 20 -1 10 -3 17 -5 15 -2 -2 -2 -5
0 -8 2 -2 -3 -11 -10 -20 -22 -25 -22 -82 -1 -116 46 -76 157 -2 164 108 1 27
5 54 9 59 3 5 -1 12 -9 16 -10 3 -15 -1 -16 -12z"/>
<path d="M1757 1261 c-15 -26 -15 -30 -1 -42 13 -10 17 -10 25 2 12 19 11 32
-1 24 -14 -9 -12 19 2 33 7 7 8 12 2 12 -5 0 -17 -13 -27 -29z"/>
<path d="M2445 1280 c-1 -3 -1 -14 1 -24 1 -11 -1 -28 -7 -37 -6 -12 -5 -20 1
-24 13 -8 -22 -55 -53 -72 -55 -31 -89 -4 -82 65 4 46 4 46 -9 18 -16 -36 -11
-104 9 -126 13 -14 26 -16 66 -11 25 4 94 104 84 121 -3 5 1 11 7 13 10 4 10
6 1 6 -18 1 -4 31 26 58 l26 22 -33 -2 c-19 -1 -35 -4 -37 -7z"/>
<path d="M3247 1259 c-3 -12 0 -22 8 -25 19 -8 35 4 35 24 0 25 -37 25 -43 1z"/>
<path d="M2678 1235 c-91 -67 -85 -99 17 -100 22 0 46 -5 54 -9 8 -6 12 -5 8
0 -3 5 16 10 41 11 50 2 102 17 102 30 0 5 -55 8 -123 8 -135 0 -147 7 -86 48
23 16 41 22 51 16 9 -5 18 -1 26 12 21 33 -36 23 -90 -16z"/>
<path d="M2950 1245 c-11 -30 -16 -90 -9 -115 2 -8 15 -22 28 -32 19 -13 28
-14 45 -5 30 17 49 37 63 65 18 35 9 39 -19 9 -29 -32 -59 -41 -81 -24 -20 14
-27 61 -15 96 12 34 1 40 -12 6z"/>
<path d="M2363 1234 c-14 -26 -6 -43 17 -37 24 6 25 13 6 38 -13 18 -14 18
-23 -1z"/>
<path d="M2510 1215 c-18 -22 -5 -33 38 -30 53 3 68 13 45 30 -14 10 -21 11
-32 2 -11 -9 -15 -9 -18 1 -6 16 -18 15 -33 -3z"/>
<path d="M1677 1182 c-21 -22 -3 -49 20 -31 10 9 17 8 29 -2 14 -11 18 -10 30
6 12 17 12 20 -2 28 -8 5 -22 6 -31 2 -9 -3 -19 -1 -23 5 -4 7 -13 4 -23 -8z"/>
<path d="M2105 1139 c-4 -6 -5 -12 -2 -15 2 -3 7 2 10 11 7 17 1 20 -8 4z"/>
<path d="M2205 1140 c-4 -6 -17 -9 -30 -6 -14 4 -25 1 -28 -7 -6 -18 3 -37 18
-37 7 0 15 6 18 13 3 9 7 9 19 -1 13 -10 19 -10 33 5 14 14 15 18 4 22 -8 2
-17 8 -20 14 -4 5 -9 4 -14 -3z"/>
<path d="M2088 1104 c-7 -7 2 -44 11 -44 18 0 30 24 20 37 -12 14 -22 16 -31
7z"/>
<path d="M2702 1098 c-7 -7 -12 -25 -12 -40 0 -21 5 -28 20 -28 24 0 25 6 5
26 -11 12 -12 20 -5 35 12 22 9 24 -8 7z"/>
</g>
</svg>
